<?xml version="1.0" encoding="UTF-8" standalone="no"?>
<svg
   xmlns:dc="http://purl.org/dc/elements/1.1/"
   xmlns:cc="http://creativecommons.org/ns#"
   xmlns:rdf="http://www.w3.org/1999/02/22-rdf-syntax-ns#"
   xmlns:svg="http://www.w3.org/2000/svg"
   xmlns="http://www.w3.org/2000/svg"
   xmlns:sodipodi="http://sodipodi.sourceforge.net/DTD/sodipodi-0.dtd"
   xmlns:inkscape="http://www.inkscape.org/namespaces/inkscape"
   version="1.1"
   x="0px"
   y="0px"
   viewBox="0 0 66 66"
   enable-background="new 0 0 68 68"
   xml:space="preserve"
   id="svg50"
   sodipodi:docname="courses2.svg"
   inkscape:version="1.0.2 (e86c870879, 2021-01-15, custom)"
   width="66"
   height="66"><metadata
     id="metadata56"><rdf:RDF><cc:Work
         rdf:about=""><dc:format>image/svg+xml</dc:format><dc:type
           rdf:resource="http://purl.org/dc/dcmitype/StillImage" /><dc:title></dc:title></cc:Work></rdf:RDF></metadata><defs
     id="defs54"><clipPath
       clipPathUnits="userSpaceOnUse"
       id="clipPath70"><rect
         style="fill:#0000ff;fill-rule:evenodd"
         id="rect72"
         width="65.760933"
         height="66.750877"
         x="1.2727906"
         y="0.42426378" /></clipPath><clipPath
       clipPathUnits="userSpaceOnUse"
       id="clipPath70-0"><rect
         style="fill:#0000ff;fill-rule:evenodd"
         id="rect72-9"
         width="65.760933"
         height="66.750877"
         x="1.2727906"
         y="0.42426378" /></clipPath></defs><sodipodi:namedview
     pagecolor="#ffffff"
     bordercolor="#666666"
     borderopacity="1"
     objecttolerance="10"
     gridtolerance="10"
     guidetolerance="10"
     inkscape:pageopacity="0"
     inkscape:pageshadow="2"
     inkscape:window-width="1920"
     inkscape:window-height="1017"
     id="namedview52"
     showgrid="false"
     inkscape:zoom="7.0710678"
     inkscape:cx="42.988434"
     inkscape:cy="35.476241"
     inkscape:window-x="-8"
     inkscape:window-y="-8"
     inkscape:window-maximized="1"
     inkscape:current-layer="svg50" /><g
     id="g44"
     clip-path="url(#clipPath70-0)"
     transform="translate(-3.0287267,-0.90745264)"><path
       d="m 42.4058,15.6849 c 0.02,0.67 -0.11,2.3701 -0.35,4.41 h -7.15 c -0.33,-1.96 -0.52,-3.5699 -0.54,-4.22 -0.02,-1.08 0.3799,-2.0599 1.05,-2.7999 -0.83,-0.7301 -4.72,-4.3101 -3.8,-7.3501 l 4.47,3.72 1.23,-7.5699 c 0,0 3.15,4.41 2.62,7.7101 0,0 3.64,-3.7001 5.9301,-3.1401 0,0 -2.78,5.5801 -4.41,6.73 0.5699,0.68 0.9299,1.55 0.9499,2.5099 z"
       id="path34" /><path
       d="m 32.4058,20.095 h -9.83 l -0.58,-1.1899 c 0.42,-0.7301 1.13,-1.3101 2.01,-1.53 l -1.49,-5.9301 4.14,-1.03 1.49,5.9202 c 1.6904,-0.4178 3.4624,0.58 3.91,2.3499 z"
       id="path36" /><rect
       x="20.6901"
       y="4.2027998"
       transform="matrix(0.2437,0.9699,-0.9699,0.2437,23.8649,-17.9294)"
       width="5.4763999"
       height="4.2680998"
       id="rect38" /><path
       d="m 52.7858,4.8151 c -3.75,0 -6.8,6.73 -6.8,15.02 v 0.2599 h 13.21 c 0.12,0 0.24,0.01 0.37,0.02 0.01,-0.09 0.01,-0.1901 0.01,-0.2799 0,-8.2901 -3.04,-15.02 -6.79,-15.02 z m 1.71,14.26 h -3.43 c -0.55,0 -1,-0.4501 -1,-1 0,-0.55 0.45,-1 1,-1 h 3.43 c 0.55,0 1,0.45 1,1 0,0.5499 -0.45,1 -1,1 z m 0,-5.6701 h -3.43 c -0.55,0 -1,-0.4501 -1,-1 0,-0.55 0.45,-1 1,-1 h 3.43 c 0.55,0 1,0.45 1,1 0,0.55 -0.45,1 -1,1 z"
       id="path40" /><path
       d="m 59.7258,22.145 c -0.17,-0.03 -0.35,-0.05 -0.53,-0.05 h -37.87 l -5.47,-11.17 c -0.17,-0.3398 -0.52,-0.5599 -0.9,-0.5599 h -8.31 c -0.56,0 -1,0.4501 -1,1 0,0.5599 0.44,1 1,1 h 7.68 l 5.4,11.01 c 4.95,34.17 2.49,17.1801 4.06,28.02 0.01,0.0399 0.01,0.0699 0.03,0.11 v 0.01 l -2.74,2.86 c -0.69,0.8099 -0.84,1.92 -0.39,2.89 0.45,0.96 1.39,1.5701 2.45,1.5701 h 1.56 c -0.52,0.75 -0.83,1.6599 -0.83,2.6399 0,2.5701 2.08,4.65 4.64,4.65 2.57,0 4.65,-2.08 4.65,-4.65 0,-0.98 -0.31,-1.8899 -0.83,-2.6399 h 16.81 c -0.52,0.75 -0.83,1.6599 -0.83,2.6399 0,2.5701 2.09,4.65 4.65,4.65 2.56,0 4.65,-2.08 4.65,-4.65 0,-0.98 -0.31,-1.8899 -0.83,-2.6399 h 3.87 c 0.55,0 1,-0.4501 1,-1 0,-0.5601 -0.45,-1 -1,-1 h -37.51 c -0.4,0 -0.58,-0.29 -0.64,-0.4102 -0.05,-0.1299 -0.16,-0.45 0.0601,-0.71 l 3.3199,-3.46 h 30.81 c 1.6201,0 2.97,-1.21 3.14,-2.8201 l 1.8,-17.1099 c 0.01,-0.0601 0.02,-0.1301 0.02,-0.2001 l 0.69,-6.5499 c 0.18,-1.6601 -0.98,-3.17 -2.61,-3.43 z m -37.87,1.95 h 8.37 l 0.49,7.03 c -0.54,0 -7.84,0 -7.84,0 z m 1.31,9.03 c 0.19,0 7.69,0 7.69,0 l 0.58,8.09 c -0.15,0 -7.1,0 -7.1,0 z m 2.48,17.13 -1.02,-7.04 h 6.95 l 0.49,7.04 c -0.17,0 -6.42,0 -6.42,0 z m 23.09,0 h -14.66 l -0.5,-7.04 h 15.52 z m 0.46,-9.04 h -15.76 l -0.5699,-8.09 h 16.75 z m 0.52,-10.09 h -16.99 l -0.5,-7.03 h 17.85 z m 8.13,18.09 c -0.07,0.5901 -0.57,1.04 -1.16,1.04 h -5.95 l 0.36,-7.04 h 7.38 z m 0.84,-8 h -7.48 l 0.41,-8.09 h 7.92 z m 1.67,-15.84 -0.61,5.75 h -8.03 l 0.36,-7.03 h 7.12 c 0.06,0 0.11,0 0.19,0.02 0.56,0.09 0.98,0.58 0.98,1.15 0,0.03 -0.01,0.0701 -0.01,0.11 z"
       id="path42" /></g></svg>
