<?xml version="1.0" encoding="UTF-8" standalone="no"?>
<svg
   xmlns:dc="http://purl.org/dc/elements/1.1/"
   xmlns:cc="http://creativecommons.org/ns#"
   xmlns:rdf="http://www.w3.org/1999/02/22-rdf-syntax-ns#"
   xmlns:svg="http://www.w3.org/2000/svg"
   xmlns="http://www.w3.org/2000/svg"
   xmlns:sodipodi="http://sodipodi.sourceforge.net/DTD/sodipodi-0.dtd"
   xmlns:inkscape="http://www.inkscape.org/namespaces/inkscape"
   version="1.1"
   x="0px"
   y="0px"
   viewBox="0 0 96 96"
   enable-background="new 0 0 512 512"
   xml:space="preserve"
   id="svg10"
   sodipodi:docname="outils2.svg"
   width="96"
   height="96"
   inkscape:version="1.0.2 (e86c870879, 2021-01-15, custom)"><metadata
     id="metadata16"><rdf:RDF><cc:Work
         rdf:about=""><dc:format>image/svg+xml</dc:format><dc:type
           rdf:resource="http://purl.org/dc/dcmitype/StillImage" /><dc:title></dc:title></cc:Work></rdf:RDF></metadata><defs
     id="defs14" /><sodipodi:namedview
     pagecolor="#ffffff"
     bordercolor="#666666"
     borderopacity="1"
     objecttolerance="10"
     gridtolerance="10"
     guidetolerance="10"
     inkscape:pageopacity="0"
     inkscape:pageshadow="2"
     inkscape:window-width="1920"
     inkscape:window-height="1017"
     id="namedview12"
     showgrid="false"
     inkscape:zoom="7.5130095"
     inkscape:cx="83.445336"
     inkscape:cy="53.649334"
     inkscape:window-x="-8"
     inkscape:window-y="-8"
     inkscape:window-maximized="1"
     inkscape:current-layer="svg10"
     inkscape:document-rotation="0" /><g
     id="g4"
     transform="matrix(0.24397127,0,0,0.23692928,-14.218572,-12.802345)"
     style="fill:#ffffff"><path
       d="m 343.775,232.359 c 6.401,1.64 12.949,2.439 19.51,2.439 22.382,-0.001 44.872,-9.308 61.835,-26.271 18.164,-18.164 27.509,-43.294 25.637,-68.949 -0.186,-2.547 -1.655,-4.825 -3.898,-6.044 -2.243,-1.22 -4.953,-1.214 -7.192,0.016 l -62.075,34.096 -22.563,-13.672 0.565,-26.4 64.424,-35.375 c 2.134,-1.172 3.567,-3.308 3.842,-5.727 0.275,-2.419 -0.642,-4.822 -2.458,-6.443 -34.903,-31.145 -88.175,-29.609 -121.277,3.493 -20.441,20.441 -29.588,49.678 -24.47,78.204 0.498,2.784 0.337,6.856 -3.261,10.447 l -51.651,51.66 -77.499,-75.586 c -0.139,-0.135 -0.283,-0.266 -0.433,-0.39 -1.415,-1.18 -3.404,-3.451 -3.755,-4.462 l -0.208,-1.112 c -0.963,-5.213 -2.417,-13.092 -9.251,-19.049 C 119.869,114.749 103.598,101.581 93.19,94.22 86.25,89.342 79.238,89.858 73.447,95.669 l -7.655,7.674 c -5.84,5.821 -6.348,12.837 -1.443,19.737 7.269,10.299 20.449,26.597 28.989,36.398 5.933,6.818 13.782,8.275 18.977,9.24 0.409,0.076 0.81,0.15 1.201,0.226 0.921,0.315 3.113,2.159 4.445,3.738 0.126,0.151 0.258,0.298 0.396,0.439 l 75.577,77.51 -115.799,115.808 c -8.237,8.231 -12.774,19.177 -12.774,30.821 0,11.644 4.536,22.591 12.77,30.825 8.237,8.242 19.186,12.781 30.834,12.781 h 0.008 c 11.646,-0.002 22.591,-4.542 30.817,-12.779 l 98.264,-98.255 c 5.286,1.053 10.172,3.621 13.995,7.45 4.588,4.596 7.437,11.107 8.021,18.328 0.481,6.027 3.135,11.846 7.263,15.946 l 70.292,70.302 c 8.062,8.057 18.778,12.495 30.174,12.496 h 0.006 c 11.398,0 22.111,-4.439 30.164,-12.498 l 14.008,-14.008 c 8.063,-8.057 12.503,-18.772 12.503,-30.171 0,-11.398 -4.439,-22.115 -12.502,-30.178 l -70.309,-70.288 c -4.154,-4.14 -9.971,-6.788 -15.958,-7.264 -7.216,-0.576 -13.715,-3.422 -18.308,-8.021 -3.833,-3.826 -6.405,-8.706 -7.466,-13.979 l 32.429,-32.43 c 2.984,-2.98 7.36,-4.189 11.409,-3.158 z m -125.996,89.674 c 1.17,1.16 2.441,2.183 3.78,3.082 l -92.379,92.37 c -5.396,5.404 -12.574,8.381 -20.209,8.382 h -0.005 c -7.639,0 -14.821,-2.978 -20.226,-8.386 -5.403,-5.403 -8.378,-12.583 -8.378,-20.22 0,-7.636 2.975,-14.813 8.379,-20.213 l 115.667,-115.676 19.007,19.494 -5.673,5.667 c -9.75,9.791 -9.746,25.703 0.037,35.5 z M 324.522,304.9 c 2.497,0.199 4.888,1.269 6.552,2.927 l 70.3,70.279 c 5.229,5.229 8.108,12.179 8.108,19.571 0,7.39 -2.879,14.337 -8.108,19.563 l -14.012,14.012 c -5.221,5.226 -12.167,8.103 -19.556,8.103 h -0.004 c -7.392,-0.001 -14.343,-2.88 -19.571,-8.104 l -70.308,-70.318 c -1.643,-1.632 -2.699,-4.007 -2.9,-6.524 -0.871,-10.769 -5.26,-20.615 -12.358,-27.724 -7.019,-7.031 -16.325,-11.362 -26.245,-12.236 -0.24,-0.033 -0.481,-0.054 -0.723,-0.063 -0.319,-0.026 -0.635,-0.053 -0.966,-0.071 -2.337,-0.126 -4.608,-1.17 -6.366,-2.91 -3.926,-3.932 -3.922,-10.342 -0.006,-14.275 l 10.9,-10.89 c 2.905,-2.902 2.936,-7.601 0.069,-10.541 l -29.482,-30.236 c -0.023,-0.023 -0.042,-0.049 -0.065,-0.072 -0.014,-0.014 -0.029,-0.025 -0.043,-0.039 l -80.451,-82.509 c -1.711,-2.008 -6.815,-7.435 -12.841,-8.611 -0.453,-0.088 -0.917,-0.174 -1.392,-0.262 -4.062,-0.754 -7.899,-1.467 -10.401,-4.342 -8.296,-9.521 -21.055,-25.291 -28.062,-35.219 -0.103,-0.145 -0.189,-0.274 -0.262,-0.388 0.022,-0.022 0.045,-0.046 0.069,-0.069 l 7.673,-7.692 c 0.02,-0.021 0.04,-0.039 0.058,-0.058 0.122,0.075 0.261,0.166 0.418,0.277 9.869,6.979 25.95,19.998 35.193,28.06 2.891,2.521 3.604,6.381 4.358,10.467 l 0.249,1.33 c 1.175,6.006 6.61,11.123 8.616,12.835 l 82.519,80.482 c 0.008,0.008 0.015,0.017 0.023,0.025 0.013,0.014 0.028,0.024 0.042,0.038 l 30.254,29.507 c 2.94,2.867 7.637,2.837 10.54,-0.066 l 10.896,-10.896 c 1.907,-1.904 4.443,-2.952 7.143,-2.952 2.696,0 5.225,1.046 7.116,2.94 1.771,1.776 2.808,4.025 2.923,6.382 0.018,0.332 0.045,0.665 0.073,0.997 0.009,0.218 0.028,0.435 0.057,0.652 0.876,9.917 5.216,19.229 12.25,26.252 7.104,7.116 16.949,11.509 27.723,12.368 z m -29.298,-53.45 c -0.906,-1.344 -1.938,-2.62 -3.111,-3.795 -4.73,-4.737 -11.028,-7.346 -17.735,-7.346 -6.702,0 -13.003,2.606 -17.746,7.342 l -5.663,5.663 -19.489,-19.008 51.514,-51.522 c 6.289,-6.277 8.995,-14.915 7.423,-23.703 -4.252,-23.7 3.34,-47.981 20.312,-64.952 24.866,-24.866 63.436,-28.278 92.015,-9.558 l -58.168,31.941 c -2.349,1.289 -3.831,3.734 -3.888,6.413 l -0.75,35.061 c -0.058,2.679 1.319,5.186 3.611,6.574 l 29.97,18.16 c 2.292,1.389 5.149,1.449 7.498,0.159 l 54.658,-30.021 c -1.574,16.918 -8.979,32.881 -21.163,45.065 -18.207,18.207 -43.885,25.835 -67.025,19.905 -9.163,-2.333 -19.021,0.381 -25.725,7.085 z m 79.487,153.915 c 1.464,1.46 3.38,2.189 5.296,2.189 1.923,0 3.846,-0.735 5.311,-2.204 2.925,-2.933 2.918,-7.682 -0.015,-10.606 l -69.05,-68.86 c -2.934,-2.925 -7.683,-2.918 -10.606,0.015 -2.925,2.933 -2.918,7.682 0.015,10.606 z M 108.947,377.524 c -10.146,0 -18.4,8.259 -18.4,18.41 0,10.146 8.254,18.4 18.4,18.4 10.146,0 18.4,-8.254 18.4,-18.4 -10e-4,-10.151 -8.255,-18.41 -18.4,-18.41 z m 0,21.81 c -1.875,0 -3.4,-1.525 -3.4,-3.4 0,-1.88 1.525,-3.41 3.4,-3.41 1.875,0 3.4,1.53 3.4,3.41 -10e-4,1.875 -1.526,3.4 -3.4,3.4 z"
       id="path2"
       style="fill:#ffffff" /></g></svg>
